<svg width="24" height="21" viewBox="0 0 24 21" fill="none" xmlns="http://www.w3.org/2000/svg">
<path fill-rule="evenodd" clip-rule="evenodd" d="M11.207 14.434L14.976 12.568L11.113 9.273L12.308 8.682L18.561 10.793L21.548 9.314C22.336 8.919 23.637 9.025 23.932 9.621C23.979 9.716 24 9.824 24 9.94C23.997 10.549 23.387 11.374 22.731 11.704L19.744 13.183L17.633 19.436L16.438 20.027L16.159 14.958L12.39 16.824L11.612 18.697L10.777 19.111L10.484 16.28L8.41 14.331L9.246 13.917L11.207 14.434ZM9.02 18.628C4.2 20.169 0.391 16.252 0 14C1.573 15.733 4.624 17.261 7.973 16.256L8.859 17.095L9.02 18.628ZM0.134 11.643C0.046 11.108 0 10.559 0 10C0 4.477 4.477 0 10 0C14.927 0 19.023 3.565 19.848 8.256L18.242 9.058C16.992 8.583 13.801 7.391 13.801 7.391C13.156 7.164 12.462 6.936 12.114 7.053C12.2 6.674 11.95 6.333 11.573 6.059C11.48 5.991 10.729 5.471 10.932 5.813L11.59 6.467C11.557 6.489 11.417 6.229 11.417 6.419C11.461 6.307 11.433 6.902 11.33 6.707C11.285 6.633 11.405 6.592 11.335 6.485C11.335 6.414 11.146 6.345 11.108 6.297C11.004 6.167 10.727 5.882 10.577 5.814C10.536 5.795 9.941 5.887 9.891 5.906L9.742 6.165C9.617 6.211 9.502 6.27 9.392 6.343L9.262 6.637C9.204 6.687 8.624 6.879 8.621 6.887C8.646 6.824 8.215 6.744 8.243 6.619C8.275 6.482 8.421 6.052 8.383 5.896C8.343 5.731 9.278 6.132 9.339 5.699C9.363 5.512 9.377 5.293 9.077 5.262C9.134 5.268 9.657 5.057 9.743 4.962C9.865 4.822 10.144 4.592 10.347 4.592C10.583 4.592 10.532 4.248 10.641 4.08C10.75 4.124 10.582 4.393 10.713 4.502C10.705 4.417 11.084 4.549 11.121 4.53C11.208 4.483 11.692 4.511 11.617 4.283C11.533 4.052 11.659 4.121 11.767 4.072C11.748 4.08 12.05 3.557 12.102 3.728C12.067 3.552 11.752 3.79 11.642 3.782C11.388 3.761 11.495 3.348 11.592 3.227C11.666 3.131 11.389 3.014 11.386 3.197C11.381 3.471 11.126 3.719 11.184 4.084C11.275 4.633 10.572 3.952 10.511 3.989C10.277 4.13 10.087 3.811 10.207 3.618C10.331 3.422 10.627 3.432 10.751 3.222C10.837 3.074 10.937 2.902 11.072 2.789C11.517 2.415 11.64 2.714 12.084 2.755C12.519 2.795 12.231 2.858 12.172 3.025C12.114 3.184 12.41 3.24 12.512 3.107C12.571 3.031 12.704 2.838 12.761 2.696C12.835 2.511 13.512 2.532 13.039 2.249C12.727 2.063 11.369 1.689 10.459 1.689C10.262 1.689 10.125 1.907 9.975 2.032C9.678 2.278 8.919 2.761 8.496 2.614C8.063 2.465 7.137 3.164 6.989 3.169C6.934 3.172 6.991 2.64 7.287 2.602C7.158 2.62 8.326 2.012 8.294 1.885C8.256 1.735 5.962 2.57 6.064 2.738C6.112 2.814 6.313 2.814 6.051 2.983C5.901 3.073 5.74 3.65 5.599 3.65C5.178 3.834 5.152 3.288 4.684 3.991L3.938 4.292C2.832 5.467 2.067 6.956 1.789 8.61C1.778 8.677 2.067 8.798 2.105 8.844C2.198 8.956 2.198 9.437 2.244 9.595C2.359 9.993 2.643 10.215 2.861 10.577C2.989 10.793 3.202 11.339 3.135 11.565C3.226 11.417 4.027 12.245 4.173 12.417C4.518 12.823 4.785 13.315 4.224 13.716C4.078 13.822 4.349 14.374 4.332 14.686C1.78 14.193 0.134 11.643 0.134 11.643ZM10.442 12.475C10.432 12.309 10.328 12.112 10.111 12.175C9.641 12.312 9.784 11.807 9.442 11.831C9.195 11.848 8.992 12.005 8.763 12.074C8.475 12.16 8.18 12.006 7.895 11.97C6.722 11.822 6.34 10.482 6.646 9.514C6.677 9.356 6.551 9.062 6.606 8.94C6.737 8.647 7.007 8.317 7.241 8.095C7.372 7.97 7.542 8.002 7.697 7.905C7.936 7.754 7.939 7.444 8.173 7.254C8.507 6.982 8.962 6.988 9.397 6.931C9.628 6.9 10.51 6.709 10.649 6.881C10.649 6.912 10.8 7.361 10.646 7.359C10.735 7.367 10.832 7.409 10.934 7.465L10.359 7.75L10.182 7.851C10.04 7.944 9.912 8.058 9.804 8.188C9.499 8.557 9.362 9.047 9.431 9.521C9.456 9.689 9.506 9.853 9.579 10.006C9.652 10.159 9.748 10.301 9.863 10.426L10.01 10.567L11.911 12.188L11.024 12.628L10.442 12.475ZM10.952 6.809C10.923 6.754 11.237 6.725 11.293 6.725C11.355 6.732 11.131 7.101 10.952 6.809ZM9.16 4.249L9.25 4.223L9.207 4.337C9.279 4.466 9.226 4.543 9.214 4.613L9.09 4.69C9.046 4.746 9.305 4.753 9.307 4.761C9.317 4.789 8.995 4.835 9.055 4.903C9.134 5.017 9.742 4.741 9.645 4.757C9.832 4.662 9.669 4.652 9.564 4.598C9.528 4.419 9.498 4.142 9.387 4.032L9.46 3.947C9.287 3.698 9.16 4.249 9.16 4.249ZM8.73 4.703C8.659 4.732 8.589 4.687 8.658 4.617L8.731 4.528L8.724 4.488L8.782 4.416L8.842 4.401L8.966 4.314C9.002 4.322 9.087 4.392 9.058 4.437L8.992 4.519C8.977 4.658 8.837 4.657 8.732 4.702L8.73 4.703Z" fill="#2E91ED"/>
</svg>
